<svg viewBox="0 0 1240 1520" xmlns="http://www.w3.org/2000/svg" font-family="'Nunito','Trebuchet MS',sans-serif">
  <defs>
    <style>
      @import url('https://fonts.googleapis.com/css2?family=Fredoka:wght@500;600;700&amp;family=Nunito:wght@600;700;800&amp;display=swap');
      .h{font-family:'Fredoka','Trebuchet MS',sans-serif;}
      text{fill:#1b1726;}
    </style>
    <marker id="arr" markerWidth="9" markerHeight="9" refX="7" refY="4.5" orient="auto">
      <path d="M0 0 L9 4.5 L0 9 z" fill="#1b1726"/>
    </marker>
  </defs>

  <!-- background -->
  <rect width="1240" height="1520" fill="#fbf1dd"/>
  <g fill="#7b5be6" opacity="0.10">
    <circle cx="60" cy="60" r="4"/><circle cx="1180" cy="80" r="4"/><circle cx="1190" cy="1460" r="4"/><circle cx="50" cy="1440" r="4"/>
  </g>

  <!-- title -->
  <text x="60" y="62" class="h" font-size="34" font-weight="700">Ned — System Architecture</text>
  <text x="62" y="90" font-size="16" font-weight="700" fill="#5b5470">Conversational AI agent · proactive nudge engine · household mental-load dashboard · earned memory</text>

  <!-- ===================== CLIENT ===================== -->
  <g>
    <rect x="60" y="120" width="900" height="150" rx="18" fill="#ffffff" stroke="#1b1726" stroke-width="2.5"/>
    <rect x="60" y="120" width="190" height="150" rx="18" fill="#16c6c9" stroke="#1b1726" stroke-width="2.5"/>
    <rect x="232" y="120" width="18" height="150" fill="#16c6c9"/>
    <text x="80" y="158" class="h" font-size="19" font-weight="600">CLIENT</text>
    <text x="80" y="182" font-size="13" font-weight="800">Mobile app</text>
    <text x="80" y="202" font-size="12.5" font-weight="700" fill="#1b1726">React Native</text>
    <text x="80" y="220" font-size="12.5" font-weight="700" fill="#1b1726">+ Expo · TS</text>
    <text x="80" y="246" font-size="11.5" font-weight="700" fill="#0c5f61">TanStack Query</text>
    <text x="80" y="262" font-size="11.5" font-weight="700" fill="#0c5f61">+ Zustand</text>

    <g font-size="13.5" font-weight="800">
      <rect x="278" y="150" width="190" height="44" rx="11" fill="#fbf1dd" stroke="#1b1726" stroke-width="2"/>
      <text x="373" y="177" text-anchor="middle">💬 Ned chat</text>
      <rect x="486" y="150" width="200" height="44" rx="11" fill="#fbf1dd" stroke="#1b1726" stroke-width="2"/>
      <text x="586" y="177" text-anchor="middle">📊 The Load dashboard</text>
      <rect x="704" y="150" width="236" height="44" rx="11" fill="#fbf1dd" stroke="#1b1726" stroke-width="2"/>
      <text x="822" y="177" text-anchor="middle">🧢 Onboarding &amp; You</text>
      <rect x="278" y="206" width="408" height="44" rx="11" fill="#ffe9b0" stroke="#1b1726" stroke-width="2"/>
      <text x="482" y="233" text-anchor="middle">🔔 Push notifications (nudges &amp; celebrations)</text>
      <rect x="704" y="206" width="236" height="44" rx="11" fill="#ffe9b0" stroke="#1b1726" stroke-width="2"/>
      <text x="822" y="233" text-anchor="middle">OTA updates · EAS</text>
    </g>
  </g>

  <!-- ===================== API ===================== -->
  <g>
    <rect x="60" y="320" width="900" height="120" rx="18" fill="#ffffff" stroke="#1b1726" stroke-width="2.5"/>
    <rect x="60" y="320" width="190" height="120" rx="18" fill="#7b5be6" stroke="#1b1726" stroke-width="2.5"/>
    <rect x="232" y="320" width="18" height="120" fill="#7b5be6"/>
    <text x="80" y="358" class="h" font-size="19" font-weight="600" fill="#fff">API</text>
    <text x="80" y="382" font-size="13" font-weight="800" fill="#fff">Backend</text>
    <text x="80" y="402" font-size="12.5" font-weight="700" fill="#fff">NestJS · TS</text>
    <text x="80" y="424" font-size="11.5" font-weight="700" fill="#e7defc">REST / GraphQL</text>

    <g font-size="13.5" font-weight="800">
      <rect x="278" y="348" width="200" height="64" rx="11" fill="#fbf1dd" stroke="#1b1726" stroke-width="2"/>
      <text x="378" y="376" text-anchor="middle">🔐 Auth</text>
      <text x="378" y="396" text-anchor="middle" font-size="11.5" font-weight="700">Clerk / Supabase Auth</text>
      <rect x="496" y="348" width="200" height="64" rx="11" fill="#fbf1dd" stroke="#1b1726" stroke-width="2"/>
      <text x="596" y="376" text-anchor="middle">Household / kids</text>
      <text x="596" y="396" text-anchor="middle">/ tasks API</text>
      <rect x="714" y="348" width="226" height="64" rx="11" fill="#fbf1dd" stroke="#1b1726" stroke-width="2"/>
      <text x="827" y="376" text-anchor="middle">Dashboard / load</text>
      <text x="827" y="396" text-anchor="middle">distribution service</text>
    </g>
  </g>

  <!-- ===================== AI LAYER ===================== -->
  <g>
    <rect x="60" y="490" width="900" height="250" rx="18" fill="#fff3f8" stroke="#ff4f9a" stroke-width="3"/>
    <rect x="60" y="490" width="190" height="250" rx="18" fill="#ff4f9a" stroke="#1b1726" stroke-width="2.5"/>
    <rect x="232" y="490" width="18" height="250" fill="#ff4f9a"/>
    <text x="80" y="528" class="h" font-size="19" font-weight="600" fill="#fff">NED'S</text>
    <text x="80" y="550" class="h" font-size="19" font-weight="600" fill="#fff">BRAIN</text>
    <text x="80" y="582" font-size="12" font-weight="800" fill="#fff">The agent layer</text>
    <text x="80" y="606" font-size="11.5" font-weight="700" fill="#ffe1ee">Voice is the moat —</text>
    <text x="80" y="623" font-size="11.5" font-weight="700" fill="#ffe1ee">tone is enforced</text>
    <text x="80" y="640" font-size="11.5" font-weight="700" fill="#ffe1ee">in the pipeline.</text>

    <g font-size="13.5" font-weight="800">
      <rect x="278" y="520" width="300" height="58" rx="11" fill="#fff" stroke="#1b1726" stroke-width="2"/>
      <text x="428" y="545" text-anchor="middle">🧠 Orchestration</text>
      <text x="428" y="565" text-anchor="middle" font-size="11.5" font-weight="700">Vercel AI SDK (TS) / LangGraph (Py)</text>

      <rect x="596" y="520" width="344" height="58" rx="11" fill="#ffd23f" stroke="#1b1726" stroke-width="2"/>
      <text x="768" y="545" text-anchor="middle">✨ LLM — Anthropic Claude</text>
      <text x="768" y="565" text-anchor="middle" font-size="11.5" font-weight="700">model routing: small=intent · top=voice</text>

      <rect x="278" y="592" width="300" height="58" rx="11" fill="#fff" stroke="#1b1726" stroke-width="2"/>
      <text x="428" y="617" text-anchor="middle">🛠️ Tools (function-calling)</text>
      <text x="428" y="637" text-anchor="middle" font-size="11.5" font-weight="700">book · remind · build list · own task · log win</text>

      <rect x="596" y="592" width="344" height="58" rx="11" fill="#d8fbfb" stroke="#1b1726" stroke-width="2"/>
      <text x="768" y="617" text-anchor="middle">🛡️ Tone guardrail</text>
      <text x="768" y="637" text-anchor="middle" font-size="11.5" font-weight="700">reject/rewrite anything shaming (principle 05)</text>

      <rect x="278" y="664" width="662" height="56" rx="11" fill="#ece6ff" stroke="#7b5be6" stroke-width="2.5"/>
      <text x="609" y="688" text-anchor="middle">⚡ Proactive engine — hybrid: rules decide WHEN to nudge, LLM phrases it in voice</text>
      <text x="609" y="708" text-anchor="middle" font-size="11.5" font-weight="700">"9 days since the shop, mate" · dentist overdue · half-term approaching</text>
    </g>
  </g>

  <!-- ===================== DATA ===================== -->
  <g>
    <rect x="60" y="790" width="900" height="130" rx="18" fill="#ffffff" stroke="#1b1726" stroke-width="2.5"/>
    <rect x="60" y="790" width="190" height="130" rx="18" fill="#ff6b3d" stroke="#1b1726" stroke-width="2.5"/>
    <rect x="232" y="790" width="18" height="130" fill="#ff6b3d"/>
    <text x="80" y="828" class="h" font-size="19" font-weight="600" fill="#fff">DATA &amp;</text>
    <text x="80" y="850" class="h" font-size="19" font-weight="600" fill="#fff">MEMORY</text>
    <text x="80" y="882" font-size="11.5" font-weight="700" fill="#fff">Managed first:</text>
    <text x="80" y="900" font-size="11.5" font-weight="700" fill="#fff">Supabase / Neon</text>

    <g font-size="13.5" font-weight="800">
      <rect x="278" y="820" width="206" height="70" rx="11" fill="#fbf1dd" stroke="#1b1726" stroke-width="2"/>
      <text x="381" y="848" text-anchor="middle">🐘 PostgreSQL</text>
      <text x="381" y="870" text-anchor="middle" font-size="11.5" font-weight="700">households · kids ·</text>
      <text x="381" y="886" text-anchor="middle" font-size="11.5" font-weight="700">tasks · load state</text>
      <rect x="502" y="820" width="206" height="70" rx="11" fill="#fbf1dd" stroke="#1b1726" stroke-width="2"/>
      <text x="605" y="848" text-anchor="middle">🧬 pgvector</text>
      <text x="605" y="870" text-anchor="middle" font-size="11.5" font-weight="700">semantic memory ·</text>
      <text x="605" y="886" text-anchor="middle" font-size="11.5" font-weight="700">learned patterns</text>
      <rect x="726" y="820" width="214" height="70" rx="11" fill="#fbf1dd" stroke="#1b1726" stroke-width="2"/>
      <text x="833" y="848" text-anchor="middle">⚡ Redis</text>
      <text x="833" y="870" text-anchor="middle" font-size="11.5" font-weight="700">cache · rate limit ·</text>
      <text x="833" y="886" text-anchor="middle" font-size="11.5" font-weight="700">job queue backing</text>
    </g>
  </g>

  <!-- ===================== JOBS ===================== -->
  <g>
    <rect x="60" y="970" width="430" height="120" rx="18" fill="#ffffff" stroke="#1b1726" stroke-width="2.5"/>
    <rect x="60" y="970" width="150" height="120" rx="18" fill="#ffd23f" stroke="#1b1726" stroke-width="2.5"/>
    <rect x="192" y="970" width="18" height="120" fill="#ffd23f"/>
    <text x="80" y="1008" class="h" font-size="17" font-weight="600">JOBS</text>
    <text x="80" y="1032" font-size="12" font-weight="800">Scheduler</text>
    <text x="80" y="1052" font-size="11.5" font-weight="700">BullMQ →</text>
    <text x="80" y="1070" font-size="11.5" font-weight="700">Temporal</text>
    <g font-size="12.5" font-weight="800">
      <rect x="232" y="998" width="238" height="30" rx="9" fill="#fbf1dd" stroke="#1b1726" stroke-width="2"/>
      <text x="351" y="1018" text-anchor="middle">Reminders &amp; weekly reviews</text>
      <rect x="232" y="1034" width="238" height="30" rx="9" fill="#fbf1dd" stroke="#1b1726" stroke-width="2"/>
      <text x="351" y="1054" text-anchor="middle">"Why you started" re-motivation</text>
    </g>
  </g>

  <!-- ===================== DELIVERY ===================== -->
  <g>
    <rect x="530" y="970" width="430" height="120" rx="18" fill="#ffffff" stroke="#1b1726" stroke-width="2.5"/>
    <rect x="530" y="970" width="150" height="120" rx="18" fill="#16c6c9" stroke="#1b1726" stroke-width="2.5"/>
    <rect x="662" y="970" width="18" height="120" fill="#16c6c9"/>
    <text x="550" y="1008" class="h" font-size="17" font-weight="600">DELIVERY</text>
    <text x="550" y="1032" font-size="12" font-weight="800">Channels</text>
    <text x="550" y="1052" font-size="11.5" font-weight="700">to the dad,</text>
    <text x="550" y="1070" font-size="11.5" font-weight="700">in his moment</text>
    <g font-size="12.5" font-weight="800">
      <rect x="702" y="998" width="238" height="30" rx="9" fill="#fbf1dd" stroke="#1b1726" stroke-width="2"/>
      <text x="821" y="1018" text-anchor="middle">Push · APNs + FCM (Expo)</text>
      <rect x="702" y="1034" width="116" height="30" rx="9" fill="#fbf1dd" stroke="#1b1726" stroke-width="2"/>
      <text x="760" y="1054" text-anchor="middle">Email · Resend</text>
      <rect x="826" y="1034" width="114" height="30" rx="9" fill="#fbf1dd" stroke="#1b1726" stroke-width="2"/>
      <text x="883" y="1054" text-anchor="middle">SMS · Twilio</text>
    </g>
  </g>

  <!-- ===================== INTEGRATIONS ===================== -->
  <g>
    <rect x="60" y="1120" width="900" height="86" rx="18" fill="#ffffff" stroke="#1b1726" stroke-width="2.5"/>
    <rect x="60" y="1120" width="190" height="86" rx="18" fill="#2f8cff" stroke="#1b1726" stroke-width="2.5"/>
    <rect x="232" y="1120" width="18" height="86" fill="#2f8cff"/>
    <text x="80" y="1156" class="h" font-size="17" font-weight="600" fill="#fff">INTEGRATIONS</text>
    <text x="80" y="1180" font-size="11.5" font-weight="700" fill="#fff">Phase 2 · via OAuth</text>
    <g font-size="13" font-weight="800">
      <rect x="278" y="1140" width="210" height="46" rx="11" fill="#fbf1dd" stroke="#1b1726" stroke-width="2"/>
      <text x="383" y="1168" text-anchor="middle">📅 Google / Apple Calendar</text>
      <rect x="506" y="1140" width="200" height="46" rx="11" fill="#fbf1dd" stroke="#1b1726" stroke-width="2"/>
      <text x="606" y="1168" text-anchor="middle">🛒 Grocery / shopping</text>
      <rect x="724" y="1140" width="216" height="46" rx="11" fill="#fbf1dd" stroke="#1b1726" stroke-width="2"/>
      <text x="832" y="1168" text-anchor="middle">＋ more household services</text>
    </g>
  </g>

  <!-- ===================== RIGHT RAIL: cross-cutting ===================== -->
  <g>
    <rect x="990" y="120" width="190" height="620" rx="18" fill="#1b1726"/>
    <text x="1085" y="156" text-anchor="middle" class="h" font-size="16" font-weight="600" fill="#ffd23f">OBSERVABILITY</text>
    <text x="1085" y="176" text-anchor="middle" class="h" font-size="16" font-weight="600" fill="#ffd23f">&amp; ANALYTICS</text>
    <g font-size="12.5" font-weight="800">
      <rect x="1010" y="200" width="150" height="74" rx="11" fill="#fff" stroke="#ffd23f" stroke-width="2"/>
      <text x="1085" y="232" text-anchor="middle">📈 PostHog</text>
      <text x="1085" y="252" text-anchor="middle" font-size="10.5" font-weight="700">funnels · flags ·</text>
      <text x="1085" y="266" text-anchor="middle" font-size="10.5" font-weight="700">A/B</text>
      <rect x="1010" y="288" width="150" height="74" rx="11" fill="#fff" stroke="#ffd23f" stroke-width="2"/>
      <text x="1085" y="320" text-anchor="middle">🔭 Langfuse</text>
      <text x="1085" y="340" text-anchor="middle" font-size="10.5" font-weight="700">LLM traces ·</text>
      <text x="1085" y="354" text-anchor="middle" font-size="10.5" font-weight="700">cost · tone evals</text>
      <rect x="1010" y="376" width="150" height="64" rx="11" fill="#fff" stroke="#ffd23f" stroke-width="2"/>
      <text x="1085" y="406" text-anchor="middle">🐞 Sentry</text>
      <text x="1085" y="426" text-anchor="middle" font-size="10.5" font-weight="700">app + backend</text>
    </g>
    <line x1="1010" y1="462" x2="1160" y2="462" stroke="#ffd23f" stroke-width="1.5" opacity="0.5"/>
    <text x="1085" y="492" text-anchor="middle" class="h" font-size="15" font-weight="600" fill="#ff7fb0">PRIVACY &amp;</text>
    <text x="1085" y="510" text-anchor="middle" class="h" font-size="15" font-weight="600" fill="#ff7fb0">SECURITY</text>
    <g font-size="11" font-weight="700" fill="#fbf1dd">
      <text x="1085" y="540" text-anchor="middle">UK / EU GDPR</text>
      <text x="1085" y="560" text-anchor="middle">Row-Level Security</text>
      <text x="1085" y="580" text-anchor="middle">Encrypt in transit</text>
      <text x="1085" y="598" text-anchor="middle">+ at rest</text>
      <text x="1085" y="620" text-anchor="middle">Children's-data care</text>
      <text x="1085" y="640" text-anchor="middle">Data minimisation</text>
      <text x="1085" y="660" text-anchor="middle">Right to deletion</text>
      <text x="1085" y="682" text-anchor="middle">Subprocessor DPAs</text>
      <text x="1085" y="702" text-anchor="middle" fill="#16e0c9">No training on</text>
      <text x="1085" y="720" text-anchor="middle" fill="#16e0c9">your data</text>
    </g>
  </g>

  <!-- ===================== DELIVERY / DEVOPS FOOTER ===================== -->
  <g>
    <rect x="60" y="1240" width="1120" height="64" rx="14" fill="#ece6ff" stroke="#7b5be6" stroke-width="2.5"/>
    <text x="84" y="1268" class="h" font-size="15" font-weight="600" fill="#4a3a9e">PLATFORM &amp; DELIVERY</text>
    <text x="84" y="1290" font-size="12.5" font-weight="800" fill="#1b1726">Turborepo monorepo · GitHub Actions CI · EAS mobile builds · Hosting: Render / Fly.io / Railway → AWS / GCP at scale · Secrets: Doppler</text>
  </g>

  <!-- ===================== FLOW ARROWS ===================== -->
  <g stroke="#1b1726" stroke-width="2.5" fill="none">
    <!-- client <-> api -->
    <line x1="500" y1="270" x2="500" y2="318" marker-end="url(#arr)"/>
    <line x1="540" y1="320" x2="540" y2="272" marker-end="url(#arr)"/>
    <!-- api <-> ai -->
    <line x1="500" y1="440" x2="500" y2="488" marker-end="url(#arr)"/>
    <line x1="540" y1="490" x2="540" y2="442" marker-end="url(#arr)"/>
    <!-- ai <-> data -->
    <line x1="500" y1="740" x2="500" y2="788" marker-end="url(#arr)"/>
    <line x1="540" y1="790" x2="540" y2="742" marker-end="url(#arr)"/>
    <!-- jobs -> ai (proactive trigger) curved up -->
    <path d="M275 968 C275 880 250 800 250 742" stroke="#7b5be6" stroke-width="2.5" marker-end="url(#arr)"/>
    <!-- ai/jobs -> delivery -->
    <line x1="490" y1="1030" x2="528" y2="1030" marker-end="url(#arr)"/>
    <!-- delivery -> client (push back to app) -->
    <path d="M745 968 C745 700 980 470 980 260" stroke="#16a0a2" stroke-width="2.5" stroke-dasharray="7 5" marker-end="url(#arr)"/>
    <!-- ai <-> integrations -->
    <line x1="430" y1="1118" x2="430" y2="1092" marker-end="url(#arr)"/>
  </g>
  <text x="760" y="690" font-size="11" font-weight="800" fill="#16a0a2" transform="rotate(-32 760 690)">push delivered to app →</text>

</svg>
